<?xml version="1.0" encoding="UTF-8" standalone="no"?>
<svg width="40px" height="40px" viewBox="0 0 40 40" version="1.1" xmlns="http://www.w3.org/2000/svg" xmlns:xlink="http://www.w3.org/1999/xlink">
    <!-- Generator: Sketch 39.1 (31720) - http://www.bohemiancoding.com/sketch -->
    <title>Group</title>
    <desc>Created with Sketch.</desc>
    <defs>
        <rect id="path-1" x="-4.73695157e-15" y="-4.73695157e-15" width="40" height="40"></rect>
        <mask id="mask-2" maskContentUnits="userSpaceOnUse" maskUnits="objectBoundingBox" x="0" y="0" width="40" height="40" fill="white">
            <use xlink:href="#path-1"></use>
        </mask>
    </defs>
    <g id="Page-1" stroke="none" stroke-width="1" fill="none" fill-rule="evenodd">
        <g id="Group">
            <polygon id="T" fill="#FFFFFF" points="16.7381333 9.06581333 16.7381333 29.4907733 12.6600533 29.4907733 12.6600533 9.06581333 5.33333333 9.06581333 5.33333333 5.33333333 24.0648533 5.33333333 24.0648533 9.06581333"></polygon>
            <path d="M22.35904,13.8261333 C21.5987162,14.3099758 21.21856,15.0414884 21.21856,16.0206933 C21.21856,16.9998982 21.5987162,17.7486907 22.35904,18.2670933 C23.1193638,18.7854959 24.7379076,19.3442103 27.21472,19.9432533 C29.6915324,20.5422963 31.5577537,21.3832479 32.81344,22.4661333 C34.0691263,23.5490187 34.69696,25.1445228 34.69696,27.2526933 C34.69696,29.3608639 33.9020879,31.0715668 32.31232,32.3848533 C30.7225521,33.6981399 28.6374529,34.3547733 26.05696,34.3547733 C22.2783811,34.3547733 18.9260946,33.0530264 16,30.4494933 L18.55744,27.3736533 C20.9996922,29.4933439 23.5340669,30.5531733 26.16064,30.5531733 C27.4739266,30.5531733 28.5164761,30.2709362 29.28832,29.7064533 C30.0601639,29.1419705 30.44608,28.393178 30.44608,27.4600533 C30.44608,26.5269287 30.0832036,25.8011759 29.35744,25.2827733 C28.6316764,24.7643707 27.3817689,24.2920555 25.60768,23.8658133 C23.8335911,23.4395712 22.4857646,23.0478951 21.56416,22.6907733 C20.6425554,22.3336515 19.8246436,21.8670962 19.1104,21.2910933 C17.6819129,20.2082079 16.96768,18.5493445 16.96768,16.3144533 C16.96768,14.0795622 17.7798319,12.3573394 19.40416,11.1477333 C21.0284881,9.93812729 23.038708,9.33333333 25.43488,9.33333333 C26.9785677,9.33333333 28.5107124,9.5867708 30.03136,10.0936533 C31.5520076,10.6005359 32.8652745,11.3147687 33.9712,12.2363733 L31.79392,15.3122133 C31.0796764,14.6670901 30.1120061,14.1371754 28.89088,13.7224533 C27.6697539,13.3077313 26.4659259,13.1003733 25.27936,13.1003733 C24.0927941,13.1003733 23.1193638,13.3422909 22.35904,13.8261333 L22.35904,13.8261333 Z" id="S" fill="#FFFFFF"></path>
            <use id="Rectangle" stroke="#FFFFFF" mask="url(#mask-2)" stroke-width="6" xlink:href="#path-1"></use>
        </g>
    </g>
</svg>